<svg width="290" height="221" viewBox="0 0 290 221" fill="none" xmlns="http://www.w3.org/2000/svg">
<g clip-path="url(#clip0)">
<path d="M141 53.2376V71.8805C183.593 71.8805 218.12 106.398 218.12 148.977H236.769C236.769 96.1019 193.892 53.2376 141 53.2376Z" fill="#8CEA79"/>
<path d="M141 88.8349V102.486C141 104.808 142.757 106.764 145.068 106.985C165.126 108.904 181.086 124.858 183.005 144.909C183.226 147.22 185.182 148.977 187.505 148.977H201.161C201.161 115.762 174.226 88.8349 141 88.8349Z" fill="#DA99FA"/>
<path d="M141 71.8807V88.8352C174.226 88.8352 201.161 115.762 201.161 148.978H218.12C218.12 106.398 183.593 71.8807 141 71.8807Z" fill="#93F2F1"/>
<path d="M141 34.0639V53.2376C193.892 53.2376 236.769 96.1019 236.769 148.978H255.949C255.949 85.5125 204.484 34.0639 141 34.0639Z" fill="#FFEF31"/>
<path d="M141 16.8304V34.0639C204.484 34.0639 255.949 85.5125 255.949 148.978H273.187C273.187 75.9946 214.005 16.8304 141 16.8304Z" fill="#FF7639"/>
<path d="M141 4.54927V16.8297C214.005 16.8297 273.187 75.9939 273.187 148.977H285.473C288.022 148.977 290.076 146.872 289.998 144.324C287.587 65.7183 224.283 2.43437 145.652 0.0243707C143.105 -0.0537 141 2.00061 141 4.54927V4.54927Z" fill="#FF1100"/>
<path d="M201.158 148.971C201.158 132.344 194.41 117.295 183.502 106.408L170.8 119.106C177.557 125.844 182.041 134.859 183.002 144.902C183.223 147.214 185.18 148.971 187.502 148.971H201.158Z" fill="#AB5AEA"/>
<path d="M218.118 148.971C218.118 127.663 209.471 108.374 195.494 94.4196L183.501 106.408C194.41 117.295 201.158 132.344 201.158 148.971H218.118Z" fill="#00E0E2"/>
<path d="M236.767 148.971C236.767 122.515 226.032 98.5654 208.681 81.2369L195.494 94.4195C209.471 108.374 218.118 127.663 218.118 148.971H236.767Z" fill="#00D06B"/>
<path d="M255.946 148.971C255.946 117.22 243.065 88.4772 222.243 67.6789L208.681 81.237C226.032 98.5652 236.767 122.515 236.767 148.971H255.946Z" fill="#FF9F00"/>
<path d="M273.185 148.971C273.185 112.461 258.375 79.4096 234.432 55.4929L222.242 67.6789C243.065 88.4769 255.946 117.22 255.946 148.971H273.185Z" fill="#FF3E00"/>
<path d="M285.471 148.971C288.02 148.971 290.074 146.866 289.996 144.318C288.789 104.997 272.346 69.5103 246.37 43.5591L234.432 55.4929C258.374 79.4096 273.185 112.461 273.185 148.971H285.471Z" fill="#C30010"/>
</g>
<path d="M151 53.2375V71.8804C108.122 71.8804 73.3621 106.398 73.3621 148.977H54.5879C54.5879 96.102 97.7533 53.2375 151 53.2375Z" fill="#8CEA79"/>
<path d="M151 88.8348V102.486C151 104.808 149.231 106.765 146.904 106.986C126.712 108.904 110.645 124.858 108.713 144.909C108.491 147.22 106.521 148.977 104.183 148.977H90.4352C90.4355 115.762 117.551 88.8348 151 88.8348Z" fill="#DA99FA"/>
<path d="M151 71.8807V88.8349C117.551 88.8349 90.4355 115.762 90.4355 148.977H73.3621C73.3621 106.398 108.122 71.8807 151 71.8807Z" fill="#93F2F1"/>
<path d="M151 34.0639V53.2375C97.7533 53.2375 54.5879 96.102 54.5879 148.977H35.2795C35.2795 85.5124 87.0896 34.0639 151 34.0639Z" fill="#FFEF31"/>
<path d="M151 16.8304V34.0639C87.0896 34.0639 35.2795 85.5125 35.2795 148.977H17.9258C17.9258 75.9945 77.5049 16.8304 151 16.8304Z" fill="#FF7639"/>
<path d="M151 4.54927V16.8297C77.5049 16.8297 17.9258 75.9941 17.9258 148.977H5.55759C2.99092 148.977 0.923492 146.872 1.00227 144.324C3.42955 65.7183 67.1583 2.43437 146.316 0.0243707C148.881 -0.0537 151 2.00061 151 4.54927Z" fill="#FF1100"/>
<path d="M90.4377 148.971C90.4377 132.344 97.2318 117.295 108.213 106.408L121 119.106C114.198 125.844 109.683 134.859 108.716 144.903C108.493 147.214 106.523 148.971 104.186 148.971H90.4377Z" fill="#AB5AEA"/>
<path d="M73.3644 148.971C73.3644 127.663 82.0696 108.374 96.1403 94.4193L108.213 106.408C97.2318 117.295 90.4378 132.344 90.4378 148.971H73.3644Z" fill="#00E0E2"/>
<path d="M54.5902 148.971C54.5902 122.515 65.397 98.5658 82.8652 81.2366L96.1404 94.4194C82.0696 108.374 73.3645 127.663 73.3645 148.971H54.5902Z" fill="#00D06B"/>
<path d="M35.2827 148.971C35.2827 117.22 48.2501 88.4774 69.2122 67.6789L82.8652 81.2366C65.3971 98.565 54.5902 122.515 54.5902 148.971H35.2827Z" fill="#FF9F00"/>
<path d="M17.928 148.971C17.928 112.461 32.8378 79.4095 56.9408 55.4929L69.212 67.6789C48.2499 88.4767 35.2825 117.22 35.2825 148.971H17.928Z" fill="#FF3E00"/>
<path d="M5.55985 148.971C2.99394 148.971 0.925758 146.866 1.00455 144.318C2.21894 104.997 18.7727 69.5103 44.9235 43.5591L56.9409 55.4929C32.8379 79.4095 17.928 112.461 17.928 148.971H5.55985Z" fill="#C30010"/>
<g clip-path="url(#clip1)">
<path d="M111.899 38V41.8844C111.893 45.6439 112.415 49.3865 113.453 53.0032L115.727 60.9297L133.088 43.7567L130.144 42.293C124.482 39.4767 118.234 38.0075 111.899 38Z" fill="#F7A116"/>
<path d="M163.031 42.3369L160.076 43.7931L177.402 61.0118L179.706 53.0928C180.752 49.4789 181.287 45.7381 181.293 41.9777V38.0933C174.956 38.084 168.703 39.5374 163.031 42.3369Z" fill="#F7A116"/>
<path d="M116.624 118.346C113.132 117.919 110.027 115.939 108.187 112.966C106.349 109.993 105.977 106.352 107.177 103.074C108.317 100.225 108.09 97.0165 106.559 94.3541L106.195 93.7524C97.6771 94.8327 91.2389 101.925 91.0525 110.433C90.8652 118.941 96.9863 126.305 105.447 127.751C113.909 129.198 122.166 124.293 124.867 116.216C122.495 117.945 119.545 118.707 116.624 118.346Z" fill="#EE9200"/>
<path d="M183.083 139.35L186.447 123.619C187.522 118.592 186.252 113.353 182.991 109.358C179.729 105.364 174.824 103.039 169.64 103.032L123.375 102.968C118.189 102.962 113.278 105.272 110.005 109.258C106.733 113.245 105.448 118.48 106.509 123.51L109.83 139.256H107.902C102.579 139.249 98.2579 143.52 98.2504 148.796L121.383 148.826L171.503 148.897L194.636 148.927C194.643 143.652 190.334 139.369 185.011 139.362L183.083 139.35Z" fill="#F7A116"/>
<path d="M195.16 149C195.16 143.724 190.845 139.448 185.522 139.448H183.594L186.936 123.712C188.308 117.275 185.812 110.631 180.525 106.65C171.203 130.938 147.517 143.028 127.71 149H195.16Z" fill="#F58F00"/>
<path d="M181.666 80.2222H189.377C189.377 85.4976 185.062 89.7747 179.738 89.7747H172.028C172.028 84.4985 176.343 80.2222 181.666 80.2222Z" fill="#348FD9"/>
<path d="M172.028 89.7747H179.738C185.062 89.7747 189.377 94.0509 189.377 99.3272H181.666C176.343 99.3272 172.028 95.05 172.028 89.7747Z" fill="#3086CD"/>
<path d="M172.028 78.3117H121.907V85.9761L125.763 149H141.184V120.343H152.751V149H168.172L172.028 85.9761V78.3117Z" fill="#FFB531"/>
<path d="M172.028 80.2222H121.907V85.9761C122.362 93.7627 126.546 100.864 133.166 105.081C135.735 106.713 138.37 108.242 141.069 109.667C141.186 109.728 141.3 109.797 141.418 109.857L146.854 112.701L152.637 109.491L158.852 106.052L159.623 105.62C166.829 101.547 171.489 94.1582 172.028 85.9537V80.2222Z" fill="#348FD9"/>
<path d="M172.028 80.2222H121.907V85.9761C122.362 93.7627 126.546 100.864 133.166 105.081C135.735 106.713 138.37 108.242 141.069 109.667C141.186 109.728 141.3 109.797 141.418 109.857L146.854 112.701L152.637 109.491L158.852 106.052L159.623 105.62C166.829 101.547 171.489 94.1582 172.028 85.9537V80.2222Z" fill="#3086CD"/>
<path d="M155.835 95.5062H138.1C136.348 95.5062 134.648 94.9157 133.28 93.8308L119.016 82.5143C117.189 81.0646 116.125 78.8705 116.124 76.5505V62.3719C116.124 60.3448 116.937 58.4007 118.383 56.9679L129.287 46.1616C130.732 44.7278 132.695 43.9227 134.74 43.9227H159.195C161.241 43.9227 163.202 44.7278 164.648 46.1616L175.552 56.9679C176.998 58.4007 177.811 60.3448 177.811 62.3719V76.5505C177.811 78.8705 176.747 81.0646 174.919 82.5143L160.654 93.8289C159.287 94.9138 157.587 95.5062 155.835 95.5062Z" fill="#FFB531"/>
<path d="M163.353 64.9382C157.316 65.0455 151.978 68.8516 149.956 74.4907H143.98C141.958 68.8516 136.62 65.0455 130.582 64.9382C124.647 65.0371 119.374 68.7182 117.281 74.223C116.033 77.349 116.992 80.9163 119.644 83.0115L133.281 93.8308C134.648 94.9157 136.348 95.5062 138.1 95.5062H155.835C157.587 95.5062 159.287 94.9157 160.654 93.8308L174.299 83.0133C176.951 80.9181 177.911 77.3509 176.663 74.2249C174.568 68.7163 169.291 65.0343 163.353 64.9382Z" fill="#FFD896"/>
<path d="M145.04 66.8487H148.895C151.024 66.8487 152.751 68.5596 152.751 70.6697C152.751 72.7798 151.024 74.4907 148.895 74.4907H145.04C142.911 74.4907 141.184 72.7798 141.184 70.6697C141.184 68.5596 142.911 66.8487 145.04 66.8487Z" fill="#2E3E51"/>
<path d="M152.751 82.1327C152.751 85.2979 150.161 87.8642 146.967 87.8642C143.774 87.8642 141.184 85.2979 141.184 82.1327L146.967 80.2222L152.751 82.1327Z" fill="#E94F4F"/>
<path d="M137.329 61.1172C137.329 63.2273 135.603 64.9382 133.473 64.9382C131.344 64.9382 129.618 63.2273 129.618 61.1172C129.618 59.0071 131.344 57.2962 133.473 57.2962C135.603 57.2962 137.329 59.0071 137.329 61.1172Z" fill="#2E3E51"/>
<path d="M164.317 61.1172C164.317 63.2273 162.591 64.9382 160.461 64.9382C158.332 64.9382 156.606 63.2273 156.606 61.1172C156.606 59.0071 158.332 57.2962 160.461 57.2962C162.591 57.2962 164.317 59.0071 164.317 61.1172Z" fill="#2E3E51"/>
<path d="M131.546 49.6542H135.401V53.4752H131.546V49.6542Z" fill="#FFD896"/>
<path d="M158.534 49.6542H162.389V53.4752H158.534V49.6542Z" fill="#FFD896"/>
<path d="M158.858 75.3406L156.437 78.9442C156.001 79.586 155.22 79.9069 154.453 79.7577L148.895 78.655V74.4907H145.04V78.655L139.483 79.7577C138.716 79.9097 137.934 79.5879 137.5 78.9442L135.077 75.3406L131.87 77.461L134.293 81.0627C135.59 82.9984 137.941 83.963 140.24 83.504L146.968 82.1672L153.696 83.504C155.994 83.9686 158.348 83.0021 159.643 81.0627L162.065 77.461L158.858 75.3406Z" fill="#2E3E51"/>
</g>
<path d="M64.8894 206.956C64.8894 207.268 64.1574 207.52 62.6934 207.712C61.2294 207.904 59.7654 208 58.3014 208C56.8374 208 55.9014 207.916 55.4934 207.748C55.0854 207.58 54.8814 207.316 54.8814 206.956V183.808C54.8814 182.656 58.3374 182.08 65.2494 182.08C69.4254 182.08 72.1854 182.368 73.5294 182.944C75.1614 183.616 76.2654 184.528 76.8414 185.68C77.6094 187.168 77.9934 189.076 77.9934 191.404C77.9934 194.596 77.4414 196.912 76.3374 198.352C75.5454 199.408 74.7534 200.092 73.9614 200.404C73.1694 200.716 72.5094 200.944 71.9814 201.088C71.4774 201.208 70.8414 201.304 70.0734 201.376C69.0174 201.472 67.5774 201.52 65.7534 201.52L64.8894 201.484V206.956ZM64.9254 195.508H65.7894C66.2454 195.508 66.6054 195.448 66.8694 195.328C67.1334 195.184 67.3614 194.824 67.5534 194.248C67.7694 193.648 67.8774 192.82 67.8774 191.764C67.8774 190.684 67.7574 189.868 67.5174 189.316C67.3014 188.74 67.0734 188.404 66.8334 188.308C66.6174 188.188 66.3534 188.128 66.0414 188.128H64.9254V195.508Z" fill="#348FD9"/>
<path d="M98.5865 208H83.3225C82.1465 208 81.3545 207.916 80.9465 207.748C80.5385 207.58 80.3345 207.316 80.3345 206.956V184.168C80.3345 183.544 80.6105 183.1 81.1625 182.836C81.7385 182.572 82.7585 182.44 84.2225 182.44H98.6945C99.1985 182.44 99.4505 183.28 99.4505 184.96C99.4505 186.616 99.3425 187.888 99.1265 188.776C98.9105 189.64 98.6225 190.072 98.2625 190.072C96.7025 190.072 94.0745 189.916 90.3785 189.604V192.016C93.9305 191.872 96.2465 191.8 97.3265 191.8C97.9745 191.8 98.2985 192.556 98.2985 194.068C98.2985 195.58 98.1665 196.732 97.9025 197.524C97.6625 198.292 97.3265 198.676 96.8945 198.676L90.3785 198.532V200.836C94.5545 200.524 97.4345 200.368 99.0185 200.368C99.5225 200.368 99.7745 201.208 99.7745 202.888C99.7745 204.568 99.6665 205.84 99.4505 206.704C99.2345 207.568 98.9465 208 98.5865 208Z" fill="#FFEF31"/>
<path d="M117.607 207.136C117.607 207.4 116.863 207.616 115.375 207.784C113.911 207.928 112.435 208 110.947 208C109.483 208 108.547 207.94 108.139 207.82C107.755 207.676 107.563 207.448 107.563 207.136V191.656H102.559C102.295 191.656 102.067 191.32 101.875 190.648C101.683 189.976 101.587 188.98 101.587 187.66C101.587 186.316 101.731 185.116 102.019 184.06C102.307 182.98 102.691 182.44 103.171 182.44H122.647C123.007 182.44 123.247 182.776 123.367 183.448C123.511 184.12 123.583 185.092 123.583 186.364C123.583 187.636 123.451 188.836 123.187 189.964C122.923 191.092 122.563 191.656 122.107 191.656H117.607V207.136Z" fill="#00D06B"/>
<path d="M143.886 206.956C143.886 207.316 143.106 207.58 141.546 207.748C140.01 207.916 138.546 208 137.154 208C135.762 208 134.862 207.916 134.454 207.748C134.046 207.58 133.842 207.316 133.842 206.956V184.132C133.842 183.508 134.154 183.064 134.778 182.8C135.402 182.536 136.578 182.404 138.306 182.404H151.662C152.166 182.404 152.418 183.316 152.418 185.14C152.418 186.94 152.298 188.32 152.058 189.28C151.842 190.216 151.554 190.684 151.194 190.684L143.886 190.324V192.772C147.078 192.628 149.214 192.556 150.294 192.556C150.654 192.556 150.894 192.748 151.014 193.132C151.158 193.516 151.23 194.26 151.23 195.364C151.23 196.444 151.11 197.488 150.87 198.496C150.63 199.48 150.294 199.972 149.862 199.972L143.886 199.756V206.956Z" fill="#93F2F1"/>
<path d="M173.188 208H157.924C156.748 208 155.956 207.916 155.548 207.748C155.14 207.58 154.936 207.316 154.936 206.956V184.168C154.936 183.544 155.212 183.1 155.764 182.836C156.34 182.572 157.36 182.44 158.824 182.44H173.296C173.8 182.44 174.052 183.28 174.052 184.96C174.052 186.616 173.944 187.888 173.728 188.776C173.512 189.64 173.224 190.072 172.864 190.072C171.304 190.072 168.676 189.916 164.98 189.604V192.016C168.532 191.872 170.848 191.8 171.928 191.8C172.576 191.8 172.9 192.556 172.9 194.068C172.9 195.58 172.768 196.732 172.504 197.524C172.264 198.292 171.928 198.676 171.496 198.676L164.98 198.532V200.836C169.156 200.524 172.036 200.368 173.62 200.368C174.124 200.368 174.376 201.208 174.376 202.888C174.376 204.568 174.268 205.84 174.052 206.704C173.836 207.568 173.548 208 173.188 208Z" fill="#F7A116"/>
<path d="M179.933 208C178.733 208 177.929 207.94 177.521 207.82C177.113 207.676 176.909 207.448 176.909 207.136V184.744C176.909 184.216 177.605 183.7 178.997 183.196C180.389 182.668 181.949 182.404 183.677 182.404C185.213 182.404 186.221 182.728 186.701 183.376C186.869 183.616 186.953 183.856 186.953 184.096V200.044C189.881 199.852 192.089 199.756 193.577 199.756C194.081 199.756 194.333 200.56 194.333 202.168C194.333 203.752 194.225 205.12 194.009 206.272C193.793 207.424 193.505 208 193.145 208H179.933Z" fill="#DA99FA"/>
<path d="M206.535 207.136C206.535 207.4 205.803 207.616 204.339 207.784C202.875 207.928 201.399 208 199.911 208C198.447 208 197.511 207.94 197.103 207.82C196.695 207.676 196.491 207.448 196.491 207.136V184.744C196.491 184.216 197.187 183.7 198.579 183.196C199.971 182.668 201.531 182.404 203.259 182.404C204.795 182.404 205.803 182.728 206.283 183.376C206.451 183.616 206.535 183.856 206.535 184.096V207.136Z" fill="white"/>
<path d="M228.94 189.748C228.94 190.18 228.304 191.176 227.032 192.736C225.76 194.296 223.852 196.408 221.308 199.072H228.904C229.168 199.072 229.384 199.432 229.552 200.152C229.744 200.848 229.84 201.844 229.84 203.14C229.84 204.412 229.684 205.54 229.372 206.524C229.084 207.508 228.688 208 228.184 208H210.652C209.956 208 209.452 207.304 209.14 205.912C208.852 204.52 208.708 203.008 208.708 201.376C208.708 201.016 209.38 200.032 210.724 198.424C212.068 196.816 214.096 194.572 216.808 191.692H209.824C209.176 191.692 208.852 190.648 208.852 188.56C208.852 187.096 209.008 185.716 209.32 184.42C209.632 183.1 210.028 182.44 210.508 182.44H227.104C228.328 182.44 228.94 184.876 228.94 189.748Z" fill="#FFD896"/>
<defs>
<clipPath id="clip0">
<rect width="149" height="149" fill="white" transform="translate(141)"/>
</clipPath>
<clipPath id="clip1">
<rect width="112" height="111" fill="white" transform="translate(87 38)"/>
</clipPath>
</defs>
</svg>
